<svg xmlns="http://www.w3.org/2000/svg" version="1.1" xmlns:xlink="http://www.w3.org/1999/xlink" width="512"
    height="512" x="0" y="0" viewBox="0 0 512 512" style="enable-background:new 0 0 512 512" xml:space="preserve"
    class="">
    <g>
        <path fill="#f1786b"
            d="M139 115.3c31.8-26.5 72.7-42.5 117.3-42.5 95.7 0 174.2 73.4 182.4 166.9l71 .2C501.4 107.2 391.2 2 256.3 2 192.1 2 133.5 25.9 88.8 65.1z"
            opacity="1" data-original="#f1786b" class=""></path>
        <path fill="#5a8ac8"
            d="M438.8 271.5c-7.9 93.9-86.5 167.7-182.5 167.7-45.7 0-87.4-16.7-119.5-44.4l-50.6 49.8c45 40.6 104.7 65.4 170.1 65.4 135 0 245.3-105.3 253.5-238.3z"
            opacity="1" data-original="#5ac8ae" class=""></path>
        <path fill="#8ec59b"
            d="M73.1 256c0-45.1 16.3-86.4 43.4-118.3L66.3 87.5c-39.8 44.8-64 103.8-64 168.5 0 63.4 23.3 121.4 61.7 165.9l50.6-49.8c-25.9-31.6-41.5-72-41.5-116.1z"
            opacity="1" data-original="#fbd984" class=""></path>
        <path fill="#d45947"
            d="M438.7 228.8C430.5 135.3 352 61.9 256.3 61.9c-44.6 0-85.5 16-117.3 42.5L94.7 60.1c-2 1.6-4 3.3-5.9 5l50.2 50.2c31.8-26.5 72.7-42.5 117.3-42.5 95.7 0 174.2 73.4 182.4 166.9l71 .2c-.2-3.7-.6-7.3-.9-10.9z"
            opacity="1" data-original="#d45947" class=""></path>
        <path fill="#396691"
            d="M256.3 499.1c-62.6 0-119.9-22.7-164.2-60.3l-5.9 5.8c45 40.6 104.7 65.4 170.1 65.4 135 0 245.3-105.3 253.5-238.3h-.9c-13.4 127.8-121.4 227.4-252.6 227.4z"
            opacity="1" data-original="#52afa8"></path>
        <g fill="#fdc77c">
            <path
                d="M73.1 245.1c0 1.9.2 3.7.2 5.5 1.3-43 17.2-82.3 43.1-112.9l-4.8-4.8c-24 31-38.5 69.9-38.5 112.2zM64 411C26.7 367.7 3.7 311.8 2.4 250.6c0 1.8-.1 3.6-.1 5.4 0 63.4 23.3 121.4 61.7 165.9l50.6-49.8c-1.7-2-3.2-4.2-4.7-6.3z"
                fill="#628864" opacity="1" data-original="#fdc77c"></path>
        </g>
        <path fill="#8ec59b" d="M132.1 280.6h65.1v54.1h-65.1z" opacity="1" data-original="#fbd984" class=""></path>
        <path fill="#5a8ac8" d="M215 197.7h65.1v137H215z" opacity="1" data-original="#5ac8ae" class=""></path>
        <path fill="#f1786b" d="M297.9 145.2H363v189.5h-65.1z" opacity="1" data-original="#f1786b" class=""></path>
        <path fill="#d45947" d="M297.9 322.9H363v11.8h-65.1z" opacity="1" data-original="#d45947" class=""></path>
        <path fill="#396691" d="M215 322.9h65.1v11.8H215z" opacity="1" data-original="#52afa8"></path>
        <path fill="#628864" d="M132.1 322.9h65.1v11.8h-65.1z" opacity="1" data-original="#fdc77c"></path>
    </g>
</svg>